<?xml version="1.0" standalone="no"?>
<!DOCTYPE svg PUBLIC "-//W3C//DTD SVG 20010904//EN"
 "http://www.w3.org/TR/2001/REC-SVG-20010904/DTD/svg10.dtd">
<svg version="1.0" xmlns="http://www.w3.org/2000/svg"
 width="512.000000pt" height="512.000000pt" viewBox="0 0 512.000000 512.000000"
 preserveAspectRatio="xMidYMid meet">
<metadata>
Created by potrace 1.14, written by Peter Selinger 2001-2017
</metadata>
<g transform="translate(0.000000,512.000000) scale(0.100000,-0.100000)"
fill="#000000" stroke="none">
<path d="M1202 5109 c-194 -19 -423 -79 -556 -146 -217 -109 -401 -299 -500
-514 -50 -109 -91 -247 -118 -394 l-23 -130 0 -1365 0 -1365 23 -130 c57 -316
163 -536 344 -711 176 -172 385 -270 693 -326 l130 -23 1365 0 1365 0 130 23
c308 56 517 154 693 326 181 175 287 395 344 711 l23 130 0 1365 0 1365 -23
130 c-56 308 -154 517 -326 693 -174 179 -392 285 -706 343 l-125 23 -1325 2
c-729 1 -1362 -2 -1408 -7z m478 -1689 c203 -17 347 -68 485 -173 148 -113
242 -270 280 -467 21 -109 21 -317 0 -432 -47 -270 -190 -482 -386 -577 -143
-69 -186 -75 -569 -75 -384 -1 -407 2 -476 68 -79 76 -78 66 -82 760 -2 429 0
630 8 678 22 126 94 199 217 217 81 12 385 13 523 1z m2260 -1 c64 -14 125
-60 165 -124 28 -46 30 -54 30 -154 0 -181 3 -177 -562 -699 -194 -178 -353
-328 -353 -333 0 -4 190 -9 423 -11 401 -3 424 -4 456 -23 60 -35 76 -67 79
-158 3 -95 -13 -138 -65 -173 -67 -45 -130 -49 -733 -49 -561 0 -565 0 -613
22 -67 31 -150 114 -177 176 -45 104 -36 248 23 346 48 83 141 176 486 490
l314 286 -334 5 c-208 4 -346 10 -366 17 -87 30 -132 96 -133 193 0 104 52
170 152 189 66 13 1147 13 1208 0z"/>
<path d="M1520 2554 l0 -517 57 7 c120 14 202 89 243 224 49 159 49 437 0 596
-38 121 -148 206 -267 206 l-33 0 0 -516z"/>
</g>
</svg>
